<svg width="430" height="906" viewBox="0 0 430 906" fill="none" xmlns="http://www.w3.org/2000/svg">
<mask id="mask0_2_68" style="mask-type:luminance" maskUnits="userSpaceOnUse" x="0" y="0" width="430" height="906">
<path d="M430 0H0V906H430V0Z" fill="white"/>
</mask>
<g mask="url(#mask0_2_68)">
<path d="M430 0H0V906H430V0Z" fill="white"/>
<path opacity="0.3" d="M-75.5 1207.35C49.0402 1207.35 150 1109.21 150 988.143C150 867.077 49.0402 768.934 -75.5 768.934C-200.04 768.934 -301 867.077 -301 988.143C-301 1109.21 -200.04 1207.35 -75.5 1207.35Z" fill="#FF855C"/>
<path opacity="0.2" d="M27.5 173.034C152.04 173.034 253 74.8905 253 -46.1753C253 -167.241 152.04 -265.384 27.5 -265.384C-97.0402 -265.384 -198 -167.241 -198 -46.1753C-198 74.8905 -97.0402 173.034 27.5 173.034Z" fill="#FF855C"/>
<path opacity="0.8" d="M440.5 1031.4C565.04 1031.4 666 933.258 666 812.193C666 691.127 565.04 592.984 440.5 592.984C315.96 592.984 215 691.127 215 812.193C215 933.258 315.96 1031.4 440.5 1031.4Z" fill="#FF6633"/>
</g>
</svg>
