<svg width="22" height="17" viewBox="0 0 22 17" fill="none" xmlns="http://www.w3.org/2000/svg">
<path d="M21.9432 2.3898C21.8441 1.90418 21.6226 1.45978 21.3132 1.09267C21.248 1.01268 21.1799 0.941039 21.106 0.869404C20.5579 0.333994 19.7887 0 18.9484 0H3.05169C2.21135 0 1.44487 0.333994 0.894224 0.869404C0.820533 0.941039 0.752384 1.01268 0.686986 1.09267C0.377481 1.45974 0.155977 1.90418 0.0595548 2.3898C0.0199375 2.57722 0 2.77091 0 2.96672V13.82C0 14.2364 0.0908361 14.6366 0.252829 14.998C0.403091 15.343 0.624638 15.6552 0.894181 15.917C0.962502 15.9833 1.03035 16.0442 1.10438 16.1047C1.6323 16.5297 2.31374 16.7864 3.05169 16.7864H18.9484C19.6866 16.7864 20.371 16.5297 20.8958 16.1021C20.9696 16.0442 21.0378 15.9833 21.106 15.917C21.3754 15.6552 21.5969 15.343 21.7503 14.998V14.9954C21.9122 14.6339 22 14.2363 22 13.82V2.96672C22 2.77091 21.9804 2.57722 21.9432 2.3898ZM1.99844 1.94269C2.27107 1.67795 2.63721 1.51768 3.05169 1.51768H18.9484C19.3628 1.51768 19.7322 1.67795 20.0016 1.94269C20.0498 1.98985 20.0952 2.04239 20.1353 2.09461L11.8034 9.15355C11.5736 9.34933 11.2897 9.44602 11 9.44602C10.7132 9.44602 10.4296 9.34933 10.1967 9.15355L1.86794 2.0916C1.90481 2.03939 1.95023 1.98985 1.99844 1.94269ZM1.56123 13.82V3.66211L7.59079 8.7754L1.56428 13.8833C1.56123 13.8639 1.56123 13.8421 1.56123 13.82ZM18.9484 15.2684H3.05169C2.7818 15.2684 2.52927 15.1995 2.31374 15.0783L8.67218 9.69167L9.2658 10.1937C9.76256 10.6133 10.3842 10.8258 11 10.8258C11.619 10.8258 12.2406 10.6133 12.7373 10.1937L13.3306 9.69167L19.6866 15.0783C19.4708 15.1995 19.2182 15.2684 18.9484 15.2684ZM20.4388 13.82C20.4388 13.8421 20.4388 13.8639 20.4359 13.8833L14.4094 8.77837L20.4388 3.66483V13.82Z" fill="black"/>
</svg>
