<svg width="22" height="21" viewBox="0 0 22 21" fill="none" xmlns="http://www.w3.org/2000/svg">
<path d="M17.1189 10.4999C17.1199 11.9452 16.5962 13.3444 15.64 14.4511C14.6839 15.5578 13.3566 16.301 11.892 16.5497C10.4275 16.7984 8.9196 16.5367 7.63409 15.8106C6.34857 15.0846 5.36787 13.9408 4.86477 12.5808L1.2512 15.391C2.37482 17.4674 4.1817 19.1178 6.38333 20.0789C8.58497 21.04 11.0544 21.2563 13.3973 20.6932C15.7402 20.1302 17.8214 18.8202 19.3087 16.9725C20.796 15.1249 21.6036 12.8461 21.6025 10.4999" fill="#00AC47"/>
<path d="M17.1189 10.4999C17.1181 11.477 16.8771 12.4398 16.4161 13.308C15.955 14.1762 15.2872 14.9248 14.4683 15.4913L18.0408 18.2696C19.161 17.2891 20.0569 16.0909 20.6704 14.7525C21.284 13.414 21.6015 11.9653 21.6025 10.4999" fill="#4285F4"/>
<path d="M4.48354 10.4999C4.48511 9.79003 4.61413 9.08583 4.86481 8.41905L1.25123 5.60887C0.429591 7.11546 0 8.79473 0 10.4999C0 12.2052 0.429591 13.8844 1.25123 15.391L4.86481 12.5808C4.61413 11.9141 4.48511 11.2099 4.48354 10.4999Z" fill="#FFBA00"/>
<path d="M10.8012 4.35847C12.138 4.35883 13.4398 4.77411 14.5169 5.54381L17.8265 2.54099C16.5979 1.51125 15.146 0.76453 13.579 0.356548C12.012 -0.0514335 10.3705 -0.110139 8.77693 0.184811C7.18336 0.479761 5.67888 1.12075 4.37577 2.05995C3.07266 2.99915 2.00457 4.2123 1.2512 5.60887L4.86477 8.41905C5.30548 7.23147 6.1117 6.20462 7.17384 5.47811C8.23598 4.7516 9.5025 4.36067 10.8012 4.35847Z" fill="#EA4435"/>
<path d="M21.6025 9.70748V10.4999L19.7684 13.2735H11.2089V8.91504H20.7873C21.0035 8.91504 21.2109 8.99853 21.3638 9.14714C21.5166 9.29575 21.6025 9.49731 21.6025 9.70748Z" fill="#4285F4"/>
</svg>
